<svg width="1200" height="630" viewBox="0 0 1200 630" fill="none" xmlns="http://www.w3.org/2000/svg">
  <defs>
    <linearGradient id="bg" x1="0" y1="0" x2="1200" y2="630" gradientUnits="userSpaceOnUse">
      <stop stop-color="#0c1426" />
      <stop offset="1" stop-color="#1f2b4d" />
    </linearGradient>
    <radialGradient id="glow" cx="0.8" cy="0.2" r="0.9">
      <stop stop-color="#bd8b2a" stop-opacity="0.28" />
      <stop offset="1" stop-color="#bd8b2a" stop-opacity="0" />
    </radialGradient>
  </defs>
  <rect width="1200" height="630" fill="url(#bg)" />
  <rect width="1200" height="630" fill="url(#glow)" />
  <g transform="translate(100,150)">
    <path d="M40 0c5.2 5.2 8.4 10.2 8.4 15.4 0 5-3.8 8.8-8.4 8.8s-8.4-3.8-8.4-8.8C31.6 10.2 34.8 5.2 40 0z" fill="#e2c05c" />
    <path d="M40 25 78 53H2L40 25z" fill="#e2c05c" />
    <rect x="12" y="53" width="11" height="34" rx="2" fill="#bd8b2a" />
    <rect x="57" y="53" width="11" height="34" rx="2" fill="#bd8b2a" />
  </g>
  <text x="100" y="360" font-family="Georgia, 'Times New Roman', serif" font-size="76" font-weight="700" fill="#fffdf9">Liberty House</text>
  <text x="100" y="446" font-family="Georgia, 'Times New Roman', serif" font-size="76" font-weight="700" fill="#e2c05c">Christian Centre</text>
  <text x="104" y="516" font-family="Inter, Arial, sans-serif" font-size="30" fill="#b7c4e3" letter-spacing="2">Impacting our generation · Tema, Ghana</text>
</svg>
